<svg xmlns="http://www.w3.org/2000/svg" xmlns:svg="http://www.w3.org/2000/svg" id="svg2" width="76" height="76" enable-background="new 0 0 76 76" version="1.1" viewBox="0 0 76 76" xml:space="preserve"><metadata id="metadata10"/><g id="g3055" transform="matrix(0.28369582,0,0,0.28369582,34.397902,-4.9785039)"><rect id="rect3007" width="84.385" height="84.385" x="-29.633" y="109.486" style="fill:#000;fill-opacity:1;fill-rule:nonzero;stroke:none"/><g id="g3057" transform="matrix(0.39234897,0,0,0.39234897,-126.63297,-61.066721)"><g id="g3021" transform="translate(0,0.54036522)" style="fill:#000;stroke:none"><rect id="rect3011" width="25.939" height="25.939" x="493.647" y="504.406" style="fill:#000;fill-opacity:1;fill-rule:nonzero;stroke:none"/><rect style="fill:#000;fill-opacity:1;fill-rule:nonzero;stroke:none" id="rect3013" width="25.939" height="25.939" x="493.647" y="558.445"/><rect id="rect3015" width="25.939" height="25.939" x="493.647" y="612.484" style="fill:#000;fill-opacity:1;fill-rule:nonzero;stroke:none"/><rect style="fill:#000;fill-opacity:1;fill-rule:nonzero;stroke:none" id="rect3017" width="25.939" height="25.939" x="493.647" y="450.367"/></g><g id="g3027" transform="matrix(0,1,-1,0,896.45951,187.46678)" style="fill:#000;stroke:none"><rect style="fill:#000;fill-opacity:1;fill-rule:nonzero;stroke:none" id="rect3029" width="25.939" height="25.939" x="493.647" y="504.406"/><rect id="rect3031" width="25.939" height="25.939" x="493.647" y="558.445" style="fill:#000;fill-opacity:1;fill-rule:nonzero;stroke:none"/><rect style="fill:#000;fill-opacity:1;fill-rule:nonzero;stroke:none" id="rect3033" width="25.939" height="25.939" x="493.647" y="612.484"/><rect id="rect3035" width="25.939" height="25.939" x="493.647" y="450.367" style="fill:#000;fill-opacity:1;fill-rule:nonzero;stroke:none"/></g><g id="g3037" transform="matrix(-1,0,0,-1,709.5331,1083.9263)" style="fill:#000;stroke:none"><rect id="rect3039" width="25.939" height="25.939" x="493.647" y="504.406" style="fill:#000;fill-opacity:1;fill-rule:nonzero;stroke:none"/><rect style="fill:#000;fill-opacity:1;fill-rule:nonzero;stroke:none" id="rect3041" width="25.939" height="25.939" x="493.647" y="558.445"/><rect id="rect3043" width="25.939" height="25.939" x="493.647" y="612.484" style="fill:#000;fill-opacity:1;fill-rule:nonzero;stroke:none"/><rect style="fill:#000;fill-opacity:1;fill-rule:nonzero;stroke:none" id="rect3045" width="25.939" height="25.939" x="493.647" y="450.367"/></g><g id="g3047" transform="matrix(0,-1,1,0,-186.92642,896.99988)" style="fill:#000;stroke:none"><rect style="fill:#000;fill-opacity:1;fill-rule:nonzero;stroke:none" id="rect3049" width="25.939" height="25.939" x="493.647" y="504.406"/><rect id="rect3051" width="25.939" height="25.939" x="493.647" y="558.445" style="fill:#000;fill-opacity:1;fill-rule:nonzero;stroke:none"/><rect style="fill:#000;fill-opacity:1;fill-rule:nonzero;stroke:none" id="rect3053" width="25.939" height="25.939" x="493.647" y="612.484"/><rect id="rect3055" width="25.939" height="25.939" x="493.647" y="450.367" style="fill:#000;fill-opacity:1;fill-rule:nonzero;stroke:none"/></g></g></g></svg>