<svg xmlns="http://www.w3.org/2000/svg" xmlns:svg="http://www.w3.org/2000/svg" id="svg2" width="76" height="76" enable-background="new 0 0 76 76" version="1.1" viewBox="0 0 76 76" xml:space="preserve"><metadata id="metadata10"/><rect style="fill:#000;fill-opacity:1;fill-rule:nonzero;stroke:none" id="rect3013" width="24" height="10" x="26" y="-50" transform="matrix(0,1,-1,0,0,0)"/><rect id="rect3015" width="24" height="10" x="26" y="-36" transform="matrix(0,1,-1,0,0,0)" style="fill:#000;fill-opacity:1;fill-rule:nonzero;stroke:none"/><path style="fill:#000;fill-opacity:1;fill-rule:nonzero;stroke:none" id="path3055" d="m 58,38 a 20,20 0 1 1 -40,0 20,20 0 1 1 40,0 z"/><path style="fill:#fff;fill-opacity:1;fill-rule:nonzero;stroke:none" id="path3057" d="m 54,38 a 16,16 0 1 1 -32,0 16,16 0 1 1 32,0 z"/><path style="fill:#000;fill-opacity:1;fill-rule:nonzero;stroke:none" id="rect3061" d="M 33,43 48,48 43,33 28,28 33,43 z M 35.429719,40.570281 38,38 l 2.570281,-2.570281 3.212852,8.353414 -8.353414,-3.212852 z"/></svg>