<svg xmlns="http://www.w3.org/2000/svg" xmlns:svg="http://www.w3.org/2000/svg" id="svg2" width="76" height="76" enable-background="new 0 0 76 76" version="1.1" viewBox="0 0 76 76" xml:space="preserve"><metadata id="metadata10"/><path style="opacity:1;fill:#000;fill-opacity:1;fill-rule:nonzero;stroke:none" id="rect3010" d="m 26,26 24,0 0,24 -9.154096,0 L 41,41 l 5,0 -8,-8 -8,8 5,0 0.01078,9 L 26,50 z"/><g style="fill:#000" id="g3028"><rect id="rect3012" width="3" height="3" x="53" y="27.5" style="fill:#000;fill-opacity:1;fill-rule:nonzero;stroke:none"/><rect style="fill:#000;fill-opacity:1;fill-rule:nonzero;stroke:none" id="rect3014" width="3" height="3" x="53" y="45.5"/><rect id="rect3016" width="3" height="3" x="53" y="39.5" style="fill:#000;fill-opacity:1;fill-rule:nonzero;stroke:none"/><rect style="fill:#000;fill-opacity:1;fill-rule:nonzero;stroke:none" id="rect3018" width="3" height="3" x="53" y="33.5"/><rect style="fill:#000;fill-opacity:1;fill-rule:nonzero;stroke:none" id="rect3020" width="3" height="3" x="53" y="27.5"/><rect id="rect3022" width="3" height="3" x="53" y="45.5" style="fill:#000;fill-opacity:1;fill-rule:nonzero;stroke:none"/><rect style="fill:#000;fill-opacity:1;fill-rule:nonzero;stroke:none" id="rect3024" width="3" height="3" x="53" y="39.5"/><rect id="rect3026" width="3" height="3" x="53" y="33.5" style="fill:#000;fill-opacity:1;fill-rule:nonzero;stroke:none"/></g><g style="fill:#000" id="g3038" transform="translate(-33,0)"><rect style="fill:#000;fill-opacity:1;fill-rule:nonzero;stroke:none" id="rect3040" width="3" height="3" x="53" y="27.5"/><rect id="rect3042" width="3" height="3" x="53" y="45.5" style="fill:#000;fill-opacity:1;fill-rule:nonzero;stroke:none"/><rect style="fill:#000;fill-opacity:1;fill-rule:nonzero;stroke:none" id="rect3044" width="3" height="3" x="53" y="39.5"/><rect id="rect3046" width="3" height="3" x="53" y="33.5" style="fill:#000;fill-opacity:1;fill-rule:nonzero;stroke:none"/><rect id="rect3048" width="3" height="3" x="53" y="27.5" style="fill:#000;fill-opacity:1;fill-rule:nonzero;stroke:none"/><rect style="fill:#000;fill-opacity:1;fill-rule:nonzero;stroke:none" id="rect3050" width="3" height="3" x="53" y="45.5"/><rect id="rect3052" width="3" height="3" x="53" y="39.5" style="fill:#000;fill-opacity:1;fill-rule:nonzero;stroke:none"/><rect style="fill:#000;fill-opacity:1;fill-rule:nonzero;stroke:none" id="rect3054" width="3" height="3" x="53" y="33.5"/></g><g style="fill:#000" id="g3056" transform="matrix(0,-1,1,0,0,76)"><rect style="fill:#000;fill-opacity:1;fill-rule:nonzero;stroke:none" id="rect3058" width="3" height="3" x="53" y="27.5"/><rect id="rect3060" width="3" height="3" x="53" y="45.5" style="fill:#000;fill-opacity:1;fill-rule:nonzero;stroke:none"/><rect style="fill:#000;fill-opacity:1;fill-rule:nonzero;stroke:none" id="rect3062" width="3" height="3" x="53" y="39.5"/><rect id="rect3064" width="3" height="3" x="53" y="33.5" style="fill:#000;fill-opacity:1;fill-rule:nonzero;stroke:none"/><rect id="rect3066" width="3" height="3" x="53" y="27.5" style="fill:#000;fill-opacity:1;fill-rule:nonzero;stroke:none"/><rect style="fill:#000;fill-opacity:1;fill-rule:nonzero;stroke:none" id="rect3068" width="3" height="3" x="53" y="45.5"/><rect id="rect3070" width="3" height="3" x="53" y="39.5" style="fill:#000;fill-opacity:1;fill-rule:nonzero;stroke:none"/><rect style="fill:#000;fill-opacity:1;fill-rule:nonzero;stroke:none" id="rect3072" width="3" height="3" x="53" y="33.5"/></g><g style="fill:#000" id="g3074" transform="matrix(0,-1,1,0,0,109)"><rect id="rect3076" width="3" height="3" x="53" y="27.5" style="fill:#000;fill-opacity:1;fill-rule:nonzero;stroke:none"/><rect style="fill:#000;fill-opacity:1;fill-rule:nonzero;stroke:none" id="rect3078" width="3" height="3" x="53" y="45.5"/><rect id="rect3080" width="3" height="3" x="53" y="39.5" style="fill:#000;fill-opacity:1;fill-rule:nonzero;stroke:none"/><rect style="fill:#000;fill-opacity:1;fill-rule:nonzero;stroke:none" id="rect3082" width="3" height="3" x="53" y="33.5"/><rect style="fill:#000;fill-opacity:1;fill-rule:nonzero;stroke:none" id="rect3084" width="3" height="3" x="53" y="27.5"/><rect id="rect3086" width="3" height="3" x="53" y="45.5" style="fill:#000;fill-opacity:1;fill-rule:nonzero;stroke:none"/><rect style="fill:#000;fill-opacity:1;fill-rule:nonzero;stroke:none" id="rect3088" width="3" height="3" x="53" y="39.5"/><rect id="rect3090" width="3" height="3" x="53" y="33.5" style="fill:#000;fill-opacity:1;fill-rule:nonzero;stroke:none"/></g><rect style="fill:#000;fill-opacity:1;fill-rule:nonzero;stroke:none" id="rect3133" width="0" height="0" x="0" y="0"/></svg>